<svg viewBox="5 3.101 490 424.599" width="490" height="424.599" xmlns="http://www.w3.org/2000/svg">
  <path d="M899.3 766.6V590.1h-86.4v177.2h-90.1v87.6H513.6v-88.3h209.2v-88.2H277.9v88.2l179 .6v88.2H277.2v-87.6h-90.1V589.5h-86.4V766H10V498.8h88.9V413h88.2v-90.7h90.7v-88.9h88.9v89.1l266.6.7v-89.8h88.9v90.1h90.7v88.3h87.6V500H990v266.6h-90.7zM366.7 411.1h-88.9V500h88.9v-88.9zm355.5 0h-88.9V500h88.9v-88.9zM187.1 144.5h90.7v88.9h-90.7v-88.9zm625.8 0v88.9h-90.7v-88.9h90.7z" style="fill:#228b22" transform="matrix(.5 0 0 .5 0 0)"/>
  <path d="M345 291.6c9.6 0 18 4.8 25 14.5 7 9.6 10.6 21.5 10.6 35.6s-3.5 26-10.6 35.6c-7 9.6-15.4 14.5-25 14.5-10.4 0-19.1-4.8-26.2-14.5-7-9.6-10.6-21.5-10.6-35.6s3.5-26 10.6-35.6c7.1-9.7 15.9-14.5 26.2-14.5m125.8-130.2c27.5 29.7 41.2 65.7 41.2 108 0 27.5-3.2 52.1-9.5 74s-14.3 39.7-23.9 53.4c-9.6 13.7-21.5 25.8-35.6 36.2s-27.1 18-39 22.8c-11.9 4.8-25.4 8.5-40.6 11.1-15.2 2.6-26.7 4.1-34.5 4.5-7.8.4-16.1.6-25 .6-2.2 0-8.9.2-20 .6-11.1.4-20.4.6-27.8.6s-16.7-.2-27.8-.6c-11.1-.4-17.8-.6-20-.6-8.9 0-17.3-.2-25-.6-7.8-.4-19.3-1.9-34.5-4.5s-28.8-6.3-40.6-11.1C96.1 451 83.1 443.4 69 433s-26-22.4-35.6-36.2c-9.6-13.7-17.6-31.5-23.9-53.4-6.3-21.9-9.5-46.6-9.5-74 0-42.3 13.7-78.3 41.2-108-3-1.5-3.2-16.3-.6-44.5S49.3 62.7 59 39c34.1 3.7 76.4 23 126.9 57.9 17.1-4.5 40.4-6.7 70.1-6.7 31.2 0 54.5 2.2 70.1 6.7 23-15.6 45.1-28.2 66.2-37.8s36.5-15.2 46.2-16.7L453 39c9.6 23.7 15.8 49.7 18.4 77.9 2.6 28.2 2.4 43-.6 44.5m-213.7 286c61.6 0 108.2-7.4 139.7-22.3s47.3-45.3 47.3-91.3c0-26.7-10-49-30.1-66.8-10.4-9.6-22.4-15.6-36.2-17.8-13.7-2.2-34.7-2.2-62.9 0-28.2 2.2-47.5 3.3-57.9 3.3h-2.1c-11.9 0-27.3-.7-46.2-2.2s-33.8-2.4-44.5-2.8c-10.8-.4-22.4.9-35.1 3.9-12.6 3-23 8.2-31.2 15.6C78.7 284.2 69 306.5 69 333.9c0 46 15.6 76.4 46.7 91.3s77.5 22.3 139.1 22.3h2.3m-89-155.9c9.6 0 18 4.8 25 14.5 7 9.6 10.6 21.5 10.6 35.6s-3.5 26-10.6 35.6c-7 9.6-15.4 14.5-25 14.5-10.4 0-19.1-4.8-26.2-14.5-7-9.6-10.6-21.5-10.6-35.6s3.5-26 10.6-35.6c7.1-9.7 15.8-14.5 26.2-14.5" style="fill-opacity:1;fill:#fff" transform="matrix(.29482 0 0 .29482 174.527 -8.397)"/>
</svg>
