<svg viewBox="5 27.805 490 399.895" width="490" height="399.895" xmlns="http://www.w3.org/2000/svg">
  <path d="M899.3 766.6V590.1h-86.4v177.2h-90.1v87.6H513.6v-88.3h209.2v-88.2H277.9v88.2l179 .6v88.2H277.2v-87.6h-90.1V589.5h-86.4V766H10V498.8h88.9V413h88.2v-90.7h90.7v-88.9h88.9v89.1l266.6.7v-89.8h88.9v90.1h90.7v88.3h87.6V500H990v266.6h-90.7zM366.7 411.1h-88.9V500h88.9v-88.9zm355.5 0h-88.9V500h88.9v-88.9zM187.1 144.5h90.7v88.9h-90.7v-88.9zm625.8 0v88.9h-90.7v-88.9h90.7z" style="fill:#fbbd04" transform="matrix(.5 0 0 .5 0 0)"/>
  <g fill="none" fill-rule="evenodd">
    <g fill-rule="nonzero">
      <path d="M199.073 115.284h18.551V70.231l-26.502-19.877v56.98a7.949 7.949 0 0 0 7.95 7.95z" fill="#4285f4"/>
      <path d="M281.23 115.284h18.551a7.949 7.949 0 0 0 7.95-7.95v-56.98L281.23 70.23z" fill="#34a853"/>
      <path d="M281.23 35.778V70.23l26.502-19.877V39.753c0-9.826-11.217-15.438-19.082-9.54z" fill="#fbbc04"/>
    </g>
    <path d="M217.624 70.23V35.779l31.803 23.852 31.802-23.852V70.23l-31.802 23.852z" fill="#ea4335"/>
    <path d="M191.122 39.753v10.6l26.502 19.878V35.778l-7.42-5.566c-7.865-5.897-19.082-.285-19.082 9.54z" fill="#c5221f" fill-rule="nonzero"/>
  </g>
</svg>
