<?xml version="1.0" encoding="utf-8"?>
<svg viewBox="5 27.805 490 399.895" width="490px" height="399.895px" xmlns="http://www.w3.org/2000/svg">
  <g transform="matrix(0.5, 0, 0, 0.5, 0.000015, 0)">
    <g>
      <g>
        <path d="M899.3,766.6V590.1h-86.4v177.2h-90.1v87.6H513.6v-88.3h209.2v-88.2H277.9v88.2l179,0.6v88.2H277.2v-87.6h-90.1V589.5h-86.4V766H10V498.8h88.9V413h88.2v-90.7h90.7v-88.9h88.9v89.1l266.6,0.7v-89.8h88.9v90.1h90.7v88.3h87.6V500H990v266.6H899.3z M366.7,411.1h-88.9V500h88.9V411.1z M722.2,411.1h-88.9V500h88.9V411.1z M187.1,144.5h90.7v88.9h-90.7V144.5z M812.9,144.5v88.9h-90.7v-88.9H812.9z" style="fill: rgb(251, 189, 4);"/>
      </g>
    </g>
  </g>
  <g transform="matrix(0.227754, 0, 0, 0.227754, 191.12178, 13.064314)">
    <g fill="none" fill-rule="evenodd">
      <g fill-rule="nonzero">
        <path d="M34.91 448.818h81.454V251L0 163.727V413.91c0 19.287 15.622 34.91 34.91 34.91z" fill="#4285f4"/>
        <path d="M395.636 448.818h81.455c19.287 0 34.909-15.622 34.909-34.909V163.727L395.636 251z" fill="#34a853"/>
        <path d="M395.636 99.727V251L512 163.727v-46.545c0-43.142-49.25-67.782-83.782-41.891z" fill="#fbbc04"/>
      </g>
      <path d="M116.364 251V99.727L256 204.455 395.636 99.727V251L256 355.727z" fill="#ea4335"/>
      <path d="M0 117.182v46.545L116.364 251V99.727L83.782 75.291C49.25 49.4 0 74.04 0 117.18z" fill="#c5221f" fill-rule="nonzero"/>
    </g>
  </g>
</svg>