<svg viewBox="5 11.032 490 416.668" width="490" height="416.668" xmlns="http://www.w3.org/2000/svg">
  <path d="M899.3 766.6V590.1h-86.4v177.2h-90.1v87.6H513.6v-88.3h209.2v-88.2H277.9v88.2l179 .6v88.2H277.2v-87.6h-90.1V589.5h-86.4V766H10V498.8h88.9V413h88.2v-90.7h90.7v-88.9h88.9v89.1l266.6.7v-89.8h88.9v90.1h90.7v88.3h87.6V500H990v266.6h-90.7zM366.7 411.1h-88.9V500h88.9v-88.9zm355.5 0h-88.9V500h88.9v-88.9zM187.1 144.5h90.7v88.9h-90.7v-88.9zm625.8 0v88.9h-90.7v-88.9h90.7z" style="fill:#0077b5" transform="matrix(.5 0 0 .5 0 0)"/>
  <path style="fill:#fff" d="M198.9 16.516h102.8v103.053H198.9z"/>
  <path d="M472.366.003H18.36C8.219.003 0 8.222 0 18.363v454.005c0 10.143 8.219 18.361 18.36 18.361h454.012c10.142 0 18.36-8.219 18.36-18.361V18.363c-.005-10.141-8.225-18.36-18.366-18.36zM130.375 403.808c0 6.762-5.478 12.238-12.24 12.238H69.132c-6.756 0-12.24-5.477-12.24-12.238V189.625c0-6.763 5.484-12.24 12.24-12.24h49.003c6.762 0 12.24 5.477 12.24 12.24v214.183zm0-276.326c0 6.763-5.478 12.24-12.24 12.24H69.132c-6.756 0-12.24-5.478-12.24-12.24V83.969c0-6.763 5.484-12.24 12.24-12.24h49.003c6.762 0 12.24 5.477 12.24 12.24v43.513zm303.46 276.326c0 6.762-5.483 12.238-12.24 12.238h-49.003c-6.763 0-12.24-5.477-12.24-12.238v-90.436c0-29.988-1.566-49.383-4.712-58.189-3.14-8.807-8.237-15.649-15.3-20.526-7.062-4.884-15.558-7.32-25.496-7.32-12.729 0-24.149 3.488-34.26 10.459-10.11 6.977-17.038 16.211-20.79 27.717-3.745 11.506-5.618 32.779-5.618 63.807v74.488c0 6.762-5.483 12.238-12.24 12.238h-49.003c-6.756 0-12.24-5.477-12.24-12.238V189.625c0-6.763 5.483-12.24 12.24-12.24h43.771c6.763 0 12.24 5.477 12.24 12.24v16.316c0 6.763 3.312 7.852 7.858 2.852 22.864-25.123 50.753-37.687 83.673-37.687 16.212 0 31.028 2.919 44.455 8.758 13.422 5.838 23.58 13.292 30.466 22.356 6.885 9.063 11.683 19.351 14.382 30.857 2.699 11.505 4.058 27.98 4.058 49.426v121.305h-.001z" style="fill:#0077b5" transform="translate(191.578 11.031) scale(.2381)"/>
</svg>
