<?xml version="1.0" encoding="utf-8"?>
<svg viewBox="5 11.032 490 416.668" width="490px" height="416.668px" xmlns="http://www.w3.org/2000/svg">
  <g transform="matrix(0.5, 0, 0, 0.5, 0.000015, 0)">
    <g>
      <g>
        <path d="M899.3,766.6V590.1h-86.4v177.2h-90.1v87.6H513.6v-88.3h209.2v-88.2H277.9v88.2l179,0.6v88.2H277.2v-87.6h-90.1V589.5h-86.4V766H10V498.8h88.9V413h88.2v-90.7h90.7v-88.9h88.9v89.1l266.6,0.7v-89.8h88.9v90.1h90.7v88.3h87.6V500H990v266.6H899.3z M366.7,411.1h-88.9V500h88.9V411.1z M722.2,411.1h-88.9V500h88.9V411.1z M187.1,144.5h90.7v88.9h-90.7V144.5z M812.9,144.5v88.9h-90.7v-88.9H812.9z" style="fill: rgb(0, 119, 181);"/>
      </g>
    </g>
  </g>
  <rect x="198.9" y="16.516" width="102.8" height="103.053" style="fill: rgb(255, 255, 255);"/>
  <g transform="matrix(0.238101, 0, 0, 0.238101, 191.578125, 11.031258)">
    <g>
      <g>
        <path d="M472.366,0.003H18.36C8.219,0.003,0,8.222,0,18.363v454.005c0,10.143,8.219,18.361,18.36,18.361h454.012 c10.142,0,18.36-8.219,18.36-18.361V18.363C490.727,8.222,482.507,0.003,472.366,0.003z M130.375,403.808 c0,6.762-5.478,12.238-12.24,12.238H69.132c-6.756,0-12.24-5.477-12.24-12.238V189.625c0-6.763,5.484-12.24,12.24-12.24h49.003 c6.762,0,12.24,5.477,12.24,12.24V403.808z M130.375,127.482c0,6.763-5.478,12.24-12.24,12.24H69.132 c-6.756,0-12.24-5.478-12.24-12.24V83.969c0-6.763,5.484-12.24,12.24-12.24h49.003c6.762,0,12.24,5.477,12.24,12.24V127.482z M433.835,403.808c0,6.762-5.483,12.238-12.24,12.238h-49.003c-6.763,0-12.24-5.477-12.24-12.238v-90.436 c0-29.988-1.566-49.383-4.712-58.189c-3.14-8.807-8.237-15.649-15.3-20.526c-7.062-4.884-15.558-7.32-25.496-7.32 c-12.729,0-24.149,3.488-34.26,10.459c-10.11,6.977-17.038,16.211-20.79,27.717c-3.745,11.506-5.618,32.779-5.618,63.807v74.488 c0,6.762-5.483,12.238-12.24,12.238h-49.003c-6.756,0-12.24-5.477-12.24-12.238V189.625c0-6.763,5.483-12.24,12.24-12.24h43.771 c6.763,0,12.24,5.477,12.24,12.24v16.316c0,6.763,3.312,7.852,7.858,2.852c22.864-25.123,50.753-37.687,83.673-37.687 c16.212,0,31.028,2.919,44.455,8.758c13.422,5.838,23.58,13.292,30.466,22.356c6.885,9.063,11.683,19.351,14.382,30.857 c2.699,11.505,4.058,27.98,4.058,49.426V403.808L433.835,403.808z" style="fill: rgb(0, 119, 181);"/>
      </g>
    </g>
    <g/>
    <g/>
    <g/>
    <g/>
    <g/>
    <g/>
    <g/>
    <g/>
    <g/>
    <g/>
    <g/>
    <g/>
    <g/>
    <g/>
    <g/>
  </g>
</svg>