<svg viewBox="5 8.088 490 419.612" width="490" height="419.612" xmlns="http://www.w3.org/2000/svg">
  <path d="M899.3 766.6V590.1h-86.4v177.2h-90.1v87.6H513.6v-88.3h209.2v-88.2H277.9v88.2l179 .6v88.2H277.2v-87.6h-90.1V589.5h-86.4V766H10V498.8h88.9V413h88.2v-90.7h90.7v-88.9h88.9v89.1l266.6.7v-89.8h88.9v90.1h90.7v88.3h87.6V500H990v266.6h-90.7zM366.7 411.1h-88.9V500h88.9v-88.9zm355.5 0h-88.9V500h88.9v-88.9zM187.1 144.5h90.7v88.9h-90.7v-88.9zm625.8 0v88.9h-90.7v-88.9h90.7z" style="fill:red" transform="matrix(.5 0 0 .5 0 0)"/>
  <path d="M187.783 98.528v.005c.073 2.693.097 5.4.55 8.077.48 2.83 1.168 5.591 2.48 8.16q2.662 5.217 7.289 8.814c2.208 1.723 4.62 3.09 7.292 3.953 3.894 1.256 7.911 1.737 11.988 1.761 2.543.016 5.085.08 7.629.069 18.476-.078 36.953.133 55.43-.114 2.452-.033 4.864-.332 7.27-.772 4.612-.845 8.688-2.814 12.175-5.924 4.065-3.625 6.807-8.061 8.045-13.416.81-3.5 1.012-7.05 1.047-10.614v-.71c0-.276-.105-60.546-.115-61.342-.026-2.188-.188-4.36-.598-6.514-.499-2.623-1.204-5.18-2.46-7.554-1.327-2.508-2.989-4.763-5.046-6.733-3.148-3.02-6.782-5.154-11.013-6.284-3.82-1.019-7.718-1.246-11.644-1.242a.119.119 0 0 1-.022-.06h-59.42c0 .02 0 .04-.004.06-2.229.04-4.46.024-6.677.299-2.428.302-4.833.756-7.132 1.605-3.62 1.34-6.766 3.425-9.453 6.21-3.044 3.154-5.191 6.804-6.328 11.052-1.017 3.791-1.238 7.657-1.243 11.55" fill="#fff"/>
  <path d="M187.783 8.125h121.195V129.32H187.783z" fill="none"/>
  <path d="m250.527 102.144-19.87-.363c-6.433-.127-12.882.126-19.19-1.186-9.594-1.96-10.274-11.57-10.985-19.633-.98-11.333-.6-22.872 1.249-34.111 1.044-6.307 5.153-10.07 11.507-10.479 21.45-1.486 43.043-1.31 64.446-.617 2.26.064 4.536.411 6.765.807 11.002 1.928 11.27 12.82 11.984 21.988.711 9.262.41 18.573-.949 27.773-1.09 7.617-3.177 14.005-11.983 14.621-11.034.807-21.815 1.456-32.88 1.25.001-.05-.062-.05-.094-.05zM238.846 82.86c8.314-4.775 16.47-9.47 24.738-14.211-8.33-4.774-16.471-9.469-24.738-14.21z" fill="red"/>
</svg>
