<?xml version="1.0" encoding="utf-8"?>
<svg viewBox="5 3.101 490 424.599" width="490px" height="424.599px" xmlns="http://www.w3.org/2000/svg">
  <g transform="matrix(0.5, 0, 0, 0.5, 0.000015, 0)">
    <g>
      <g>
        <path d="M899.3,766.6V590.1h-86.4v177.2h-90.1v87.6H513.6v-88.3h209.2v-88.2H277.9v88.2l179,0.6v88.2H277.2v-87.6h-90.1V589.5h-86.4V766H10V498.8h88.9V413h88.2v-90.7h90.7v-88.9h88.9v89.1l266.6,0.7v-89.8h88.9v90.1h90.7v88.3h87.6V500H990v266.6H899.3z M366.7,411.1h-88.9V500h88.9V411.1z M722.2,411.1h-88.9V500h88.9V411.1z M187.1,144.5h90.7v88.9h-90.7V144.5z M812.9,144.5v88.9h-90.7v-88.9H812.9z" style="fill: rgb(34, 139, 34);"/>
      </g>
    </g>
  </g>
  <g transform="matrix(0.294818, 0, 0, 0.294818, 174.526657, -8.397212)">
    <g>
      <path d="M345,291.6c9.6,0,18,4.8,25,14.5c7,9.6,10.6,21.5,10.6,35.6s-3.5,26-10.6,35.6c-7,9.6-15.4,14.5-25,14.5 c-10.4,0-19.1-4.8-26.2-14.5c-7-9.6-10.6-21.5-10.6-35.6s3.5-26,10.6-35.6C325.9,296.4,334.7,291.6,345,291.6 M470.8,161.4 c27.5,29.7,41.2,65.7,41.2,108c0,27.5-3.2,52.1-9.5,74c-6.3,21.9-14.3,39.7-23.9,53.4c-9.6,13.7-21.5,25.8-35.6,36.2 s-27.1,18-39,22.8c-11.9,4.8-25.4,8.5-40.6,11.1c-15.2,2.6-26.7,4.1-34.5,4.5c-7.8,0.4-16.1,0.6-25,0.6c-2.2,0-8.9,0.2-20,0.6 c-11.1,0.4-20.4,0.6-27.8,0.6s-16.7-0.2-27.8-0.6c-11.1-0.4-17.8-0.6-20-0.6c-8.9,0-17.3-0.2-25-0.6c-7.8-0.4-19.3-1.9-34.5-4.5 c-15.2-2.6-28.8-6.3-40.6-11.1C96.1,451,83.1,443.4,69,433s-26-22.4-35.6-36.2c-9.6-13.7-17.6-31.5-23.9-53.4 c-6.3-21.9-9.5-46.6-9.5-74c0-42.3,13.7-78.3,41.2-108c-3-1.5-3.2-16.3-0.6-44.5S49.3,62.7,59,39c34.1,3.7,76.4,23,126.9,57.9 c17.1-4.5,40.4-6.7,70.1-6.7c31.2,0,54.5,2.2,70.1,6.7c23-15.6,45.1-28.2,66.2-37.8s36.5-15.2,46.2-16.7L453,39 c9.6,23.7,15.8,49.7,18.4,77.9C474,145.1,473.8,159.9,470.8,161.4 M257.1,447.4c61.6,0,108.2-7.4,139.7-22.3s47.3-45.3,47.3-91.3 c0-26.7-10-49-30.1-66.8c-10.4-9.6-22.4-15.6-36.2-17.8c-13.7-2.2-34.7-2.2-62.9,0c-28.2,2.2-47.5,3.3-57.9,3.3H256h-1.1 c-11.9,0-27.3-0.7-46.2-2.2s-33.8-2.4-44.5-2.8c-10.8-0.4-22.4,0.9-35.1,3.9c-12.6,3-23,8.2-31.2,15.6 C78.7,284.2,69,306.5,69,333.9c0,46,15.6,76.4,46.7,91.3s77.5,22.3,139.1,22.3H257.1 M168.1,291.6c9.6,0,18,4.8,25,14.5 c7,9.6,10.6,21.5,10.6,35.6s-3.5,26-10.6,35.6c-7,9.6-15.4,14.5-25,14.5c-10.4,0-19.1-4.8-26.2-14.5c-7-9.6-10.6-21.5-10.6-35.6 s3.5-26,10.6-35.6C149,296.4,157.7,291.6,168.1,291.6" style="fill-opacity: 1; fill: rgb(255, 255, 255);"/>
    </g>
  </g>
</svg>